<?xml version="1.0" encoding="utf-8" ?>
<svg baseProfile="full" height="98mm" version="1.1" viewBox="0,0,200,98" width="200mm" xmlns="http://www.w3.org/2000/svg" xmlns:ev="http://www.w3.org/2001/xml-events" xmlns:xlink="http://www.w3.org/1999/xlink"><defs /><rect fill="#222222" height="98" width="200" x="0" y="0" /><text fill="#FFFFFF" style="font-size:12px; font-family:Arial; font-weight:bold;" x="10" y="20">2017 Workouts</text><text fill="#FFFFFF" style="font-size:9px; font-family:Arial" x="10" y="88">Neewii</text><text fill="#FFFFFF" style="font-size:4px; font-family:Arial" x="65" y="78">SPORT TYPES</text><rect fill="#fed7aa" height="2.6" width="2.6" x="65.0" y="81" /><rect fill="#fb923c" height="2.6" width="2.6" x="68.2" y="81" /><rect fill="#f97316" height="2.6" width="2.6" x="71.4" y="81" /><rect fill="#ea580c" height="2.6" width="2.6" x="74.6" y="81" /><text fill="#FFFFFF" style="font-size:3px; font-family:Arial" x="80" y="83.5">Run</text><rect fill="#bbf7d0" height="2.6" width="2.6" x="90.0" y="81" /><rect fill="#4ade80" height="2.6" width="2.6" x="93.2" y="81" /><rect fill="#22c55e" height="2.6" width="2.6" x="96.4" y="81" /><rect fill="#16a34a" height="2.6" width="2.6" x="99.6" y="81" /><text fill="#FFFFFF" style="font-size:3px; font-family:Arial" x="105" y="83.5">Hike</text><rect fill="#bfdbfe" height="2.6" width="2.6" x="65.0" y="85" /><rect fill="#60a5fa" height="2.6" width="2.6" x="68.2" y="85" /><rect fill="#3b82f6" height="2.6" width="2.6" x="71.4" y="85" /><rect fill="#2563eb" height="2.6" width="2.6" x="74.6" y="85" /><text fill="#FFFFFF" style="font-size:3px; font-family:Arial" x="80" y="87.5">Ride</text><rect fill="#fae8ff" height="2.6" width="2.6" x="90.0" y="85" /><rect fill="#e879f9" height="2.6" width="2.6" x="93.2" y="85" /><rect fill="#c026d3" height="2.6" width="2.6" x="96.4" y="85" /><rect fill="#a21caf" height="2.6" width="2.6" x="99.6" y="85" /><text fill="#FFFFFF" style="font-size:3px; font-family:Arial" x="105" y="87.5">Workout</text><text fill="#FFFFFF" style="font-size:4px; font-family:Arial" x="120" y="78">STATISTICS</text><text fill="#FFFFFF" style="font-size:3px; font-family:Arial" x="120" y="83">Number: 476</text><text fill="#FFFFFF" style="font-size:3px; font-family:Arial" x="120" y="88">Weekly: 4.2</text><text fill="#FFFFFF" style="font-size:3px; font-family:Arial" x="141" y="83">Total: 5814.4 km</text><text fill="#FFFFFF" style="font-size:3px; font-family:Arial" x="141" y="88">Avg: 12.2 km</text><text fill="#FFFFFF" style="font-size:3px; font-family:Arial" x="167" y="83">Elev: 52528 m</text><text fill="#FFFFFF" style="font-size:3px; font-family:Arial" x="167" y="88">Max: 224.4 km</text></svg>