<?xml version="1.0" encoding="utf-8" ?>
<svg baseProfile="full" height="485mm" version="1.1" viewBox="0,0,200,485" width="200mm" xmlns="http://www.w3.org/2000/svg" xmlns:ev="http://www.w3.org/2001/xml-events" xmlns:xlink="http://www.w3.org/1999/xlink"><defs /><rect fill="#222222" height="485" width="200" x="0" y="0" /><text fill="#FFFFFF" style="font-size:12px; font-family:Arial; font-weight:bold;" x="10" y="20">2017 Workouts</text><text fill="#FFFFFF" style="font-size:9px; font-family:Arial" x="10" y="475">Neewii</text><text fill="#FFFFFF" style="font-size:4px; font-family:Arial" x="65" y="465">SPORT TYPES</text><rect fill="#fed7aa" height="2.6" width="2.6" x="65.0" y="468" /><rect fill="#fb923c" height="2.6" width="2.6" x="68.2" y="468" /><rect fill="#f97316" height="2.6" width="2.6" x="71.4" y="468" /><rect fill="#ea580c" height="2.6" width="2.6" x="74.6" y="468" /><text fill="#FFFFFF" style="font-size:3px; font-family:Arial" x="80" y="470.5">Run</text><rect fill="#bbf7d0" height="2.6" width="2.6" x="90.0" y="468" /><rect fill="#4ade80" height="2.6" width="2.6" x="93.2" y="468" /><rect fill="#22c55e" height="2.6" width="2.6" x="96.4" y="468" /><rect fill="#16a34a" height="2.6" width="2.6" x="99.6" y="468" /><text fill="#FFFFFF" style="font-size:3px; font-family:Arial" x="105" y="470.5">Hike</text><rect fill="#bfdbfe" height="2.6" width="2.6" x="65.0" y="472" /><rect fill="#60a5fa" height="2.6" width="2.6" x="68.2" y="472" /><rect fill="#3b82f6" height="2.6" width="2.6" x="71.4" y="472" /><rect fill="#2563eb" height="2.6" width="2.6" x="74.6" y="472" /><text fill="#FFFFFF" style="font-size:3px; font-family:Arial" x="80" y="474.5">Ride</text><rect fill="#fae8ff" height="2.6" width="2.6" x="90.0" y="472" /><rect fill="#e879f9" height="2.6" width="2.6" x="93.2" y="472" /><rect fill="#c026d3" height="2.6" width="2.6" x="96.4" y="472" /><rect fill="#a21caf" height="2.6" width="2.6" x="99.6" y="472" /><text fill="#FFFFFF" style="font-size:3px; font-family:Arial" x="105" y="474.5">Workout</text><text fill="#FFFFFF" style="font-size:4px; font-family:Arial" x="120" y="465">STATISTICS</text><text fill="#FFFFFF" style="font-size:3px; font-family:Arial" x="120" y="470">Number: 459</text><text fill="#FFFFFF" style="font-size:3px; font-family:Arial" x="120" y="475">Weekly: 4.1</text><text fill="#FFFFFF" style="font-size:3px; font-family:Arial" x="141" y="470">Total: 5809.9 km</text><text fill="#FFFFFF" style="font-size:3px; font-family:Arial" x="141" y="475">Avg: 12.7 km</text><text fill="#FFFFFF" style="font-size:3px; font-family:Arial" x="167" y="470">Elev: 52494 m</text><text fill="#FFFFFF" style="font-size:3px; font-family:Arial" x="167" y="475">Max: 224.4 km</text></svg>