<?xml version="1.0" encoding="utf-8" ?>
<svg baseProfile="full" height="98mm" version="1.1" viewBox="0,0,200,98" width="200mm" xmlns="http://www.w3.org/2000/svg" xmlns:ev="http://www.w3.org/2001/xml-events" xmlns:xlink="http://www.w3.org/1999/xlink"><defs /><rect fill="#222222" height="98" width="200" x="0" y="0" /><text fill="#FFFFFF" style="font-size:12px; font-family:Arial; font-weight:bold;" x="10" y="20">2025 Workouts</text><text fill="#FFFFFF" style="font-size:9px; font-family:Arial" x="10" y="88">Neewii</text><text fill="#FFFFFF" style="font-size:4px; font-family:Arial" x="65" y="78">SPORT TYPES</text><rect fill="#fed7aa" height="2.6" width="2.6" x="65.0" y="81" /><rect fill="#fb923c" height="2.6" width="2.6" x="68.2" y="81" /><rect fill="#f97316" height="2.6" width="2.6" x="71.4" y="81" /><rect fill="#ea580c" height="2.6" width="2.6" x="74.6" y="81" /><text fill="#FFFFFF" style="font-size:3px; font-family:Arial" x="80" y="83.5">Run</text><rect fill="#bbf7d0" height="2.6" width="2.6" x="90.0" y="81" /><rect fill="#4ade80" height="2.6" width="2.6" x="93.2" y="81" /><rect fill="#22c55e" height="2.6" width="2.6" x="96.4" y="81" /><rect fill="#16a34a" height="2.6" width="2.6" x="99.6" y="81" /><text fill="#FFFFFF" style="font-size:3px; font-family:Arial" x="105" y="83.5">Hike</text><rect fill="#bfdbfe" height="2.6" width="2.6" x="65.0" y="85" /><rect fill="#60a5fa" height="2.6" width="2.6" x="68.2" y="85" /><rect fill="#3b82f6" height="2.6" width="2.6" x="71.4" y="85" /><rect fill="#2563eb" height="2.6" width="2.6" x="74.6" y="85" /><text fill="#FFFFFF" style="font-size:3px; font-family:Arial" x="80" y="87.5">Ride</text><rect fill="#fae8ff" height="2.6" width="2.6" x="90.0" y="85" /><rect fill="#e879f9" height="2.6" width="2.6" x="93.2" y="85" /><rect fill="#c026d3" height="2.6" width="2.6" x="96.4" y="85" /><rect fill="#a21caf" height="2.6" width="2.6" x="99.6" y="85" /><text fill="#FFFFFF" style="font-size:3px; font-family:Arial" x="105" y="87.5">Workout</text><text fill="#FFFFFF" style="font-size:4px; font-family:Arial" x="120" y="78">STATISTICS</text><text fill="#FFFFFF" style="font-size:3px; font-family:Arial" x="120" y="83">Number: 205</text><text fill="#FFFFFF" style="font-size:3px; font-family:Arial" x="120" y="88">Weekly: 4.9</text><text fill="#FFFFFF" style="font-size:3px; font-family:Arial" x="141" y="83">Total: 1735.3 km</text><text fill="#FFFFFF" style="font-size:3px; font-family:Arial" x="141" y="88">Avg: 8.5 km</text><text fill="#FFFFFF" style="font-size:3px; font-family:Arial" x="167" y="83">Elev: 18640 m</text><text fill="#FFFFFF" style="font-size:3px; font-family:Arial" x="167" y="88">Max: 91.9 km</text><text dominant-baseline="hanging" fill="#FFFFFF" style="font-size:10.0px; font-family:Arial;" x="10" y="30">2025</text><text dominant-baseline="hanging" fill="#FFFFFF" style="font-size:4.125px; font-family:Arial;" x="175" y="35">1735.3 km</text><text fill="#FFFFFF" style="font-size:2.5px; font-family:Arial" x="10.0" y="44">Jan</text><text fill="#FFFFFF" style="font-size:2.5px; font-family:Arial" x="25.5" y="44">Feb</text><text fill="#FFFFFF" style="font-size:2.5px; font-family:Arial" x="41.0" y="44">Mar</text><text fill="#FFFFFF" style="font-size:2.5px; font-family:Arial" x="56.5" y="44">Apr</text><text fill="#FFFFFF" style="font-size:2.5px; font-family:Arial" x="72.0" y="44">May</text><text fill="#FFFFFF" style="font-size:2.5px; font-family:Arial" x="87.5" y="44">Jun</text><text fill="#FFFFFF" style="font-size:2.5px; font-family:Arial" x="103.0" y="44">Jul</text><text fill="#FFFFFF" style="font-size:2.5px; font-family:Arial" x="118.5" y="44">Aug</text><text fill="#FFFFFF" style="font-size:2.5px; font-family:Arial" x="134.0" y="44">Sep</text><text fill="#FFFFFF" style="font-size:2.5px; font-family:Arial" x="149.5" y="44">Oct</text><text fill="#FFFFFF" style="font-size:2.5px; font-family:Arial" x="165.0" y="44">Nov</text><text fill="#FFFFFF" style="font-size:2.5px; font-family:Arial" x="180.5" y="44">Dec</text><rect fill="#444444" height="2.6" width="2.6" x="10.0" y="52.5"><title>2025-01-01</title></rect><rect fill="#444444" height="2.6" width="2.6" x="10.0" y="56.0"><title>2025-01-02</title></rect><rect fill="#444444" height="2.6" width="2.6" x="10.0" y="59.5"><title>2025-01-03</title></rect><rect fill="#444444" height="2.6" width="2.6" x="10.0" y="63.0"><title>2025-01-04</title></rect><rect fill="#444444" height="2.6" width="2.6" x="10.0" y="66.5"><title>2025-01-05</title></rect><rect fill="#444444" height="2.6" width="2.6" x="13.5" y="45.5"><title>2025-01-06</title></rect><rect fill="#444444" height="2.6" width="2.6" x="13.5" y="49.0"><title>2025-01-07</title></rect><rect fill="#444444" height="2.6" width="2.6" x="13.5" y="52.5"><title>2025-01-08</title></rect><rect fill="#444444" height="2.6" width="2.6" x="13.5" y="56.0"><title>2025-01-09</title></rect><rect fill="#444444" height="2.6" width="2.6" x="13.5" y="59.5"><title>2025-01-10</title></rect><rect fill="#444444" height="2.6" width="2.6" x="13.5" y="63.0"><title>2025-01-11</title></rect><rect fill="#444444" height="2.6" width="2.6" x="13.5" y="66.5"><title>2025-01-12</title></rect><rect fill="#444444" height="2.6" width="2.6" x="17.0" y="45.5"><title>2025-01-13</title></rect><rect fill="#444444" height="2.6" width="2.6" x="17.0" y="49.0"><title>2025-01-14</title></rect><rect fill="#444444" height="2.6" width="2.6" x="17.0" y="52.5"><title>2025-01-15</title></rect><rect fill="#444444" height="2.6" width="2.6" x="17.0" y="56.0"><title>2025-01-16</title></rect><rect fill="#444444" height="2.6" width="2.6" x="17.0" y="59.5"><title>2025-01-17</title></rect><rect fill="#444444" height="2.6" width="2.6" x="17.0" y="63.0"><title>2025-01-18</title></rect><rect fill="#444444" height="2.6" width="2.6" x="17.0" y="66.5"><title>2025-01-19</title></rect><rect fill="#444444" height="2.6" width="2.6" x="20.5" y="45.5"><title>2025-01-20</title></rect><rect fill="#444444" height="2.6" width="2.6" x="20.5" y="49.0"><title>2025-01-21</title></rect><rect fill="#444444" height="2.6" width="2.6" x="20.5" y="52.5"><title>2025-01-22</title></rect><rect fill="#444444" height="2.6" width="2.6" x="20.5" y="56.0"><title>2025-01-23</title></rect><rect fill="#444444" height="2.6" width="2.6" x="20.5" y="59.5"><title>2025-01-24</title></rect><rect fill="#444444" height="2.6" width="2.6" x="20.5" y="63.0"><title>2025-01-25</title></rect><rect fill="#444444" height="2.6" width="2.6" x="20.5" y="66.5"><title>2025-01-26</title></rect><rect fill="#444444" height="2.6" width="2.6" x="24.0" y="45.5"><title>2025-01-27</title></rect><rect fill="#444444" height="2.6" width="2.6" x="24.0" y="49.0"><title>2025-01-28</title></rect><rect fill="#444444" height="2.6" width="2.6" x="24.0" y="52.5"><title>2025-01-29</title></rect><rect fill="#444444" height="2.6" width="2.6" x="24.0" y="56.0"><title>2025-01-30</title></rect><rect fill="#444444" height="2.6" width="2.6" x="24.0" y="59.5"><title>2025-01-31</title></rect><rect fill="#444444" height="2.6" width="2.6" x="24.0" y="63.0"><title>2025-02-01</title></rect><rect fill="#444444" height="2.6" width="2.6" x="24.0" y="66.5"><title>2025-02-02</title></rect><rect fill="#444444" height="2.6" width="2.6" x="27.5" y="45.5"><title>2025-02-03</title></rect><rect fill="#444444" height="2.6" width="2.6" x="27.5" y="49.0"><title>2025-02-04</title></rect><rect fill="#444444" height="2.6" width="2.6" x="27.5" y="52.5"><title>2025-02-05</title></rect><rect fill="#444444" height="2.6" width="2.6" x="27.5" y="56.0"><title>2025-02-06</title></rect><rect fill="#444444" height="2.6" width="2.6" x="27.5" y="59.5"><title>2025-02-07</title></rect><rect fill="#444444" height="2.6" width="2.6" x="27.5" y="63.0"><title>2025-02-08</title></rect><rect fill="#444444" height="2.6" width="2.6" x="27.5" y="66.5"><title>2025-02-09</title></rect><rect fill="#bfdbfe" height="2.6" width="2.6" x="31.0" y="45.5"><title>2025-02-10 cycling 20.0 km</title></rect><rect fill="#444444" height="2.6" width="2.6" x="31.0" y="49.0"><title>2025-02-11</title></rect><rect fill="#444444" height="2.6" width="2.6" x="31.0" y="52.5"><title>2025-02-12</title></rect><rect fill="#444444" height="2.6" width="2.6" x="31.0" y="56.0"><title>2025-02-13</title></rect><rect fill="#444444" height="2.6" width="2.6" x="31.0" y="59.5"><title>2025-02-14</title></rect><rect fill="#444444" height="2.6" width="2.6" x="31.0" y="63.0"><title>2025-02-15</title></rect><rect fill="#444444" height="2.6" width="2.6" x="31.0" y="66.5"><title>2025-02-16</title></rect><rect fill="#444444" height="2.6" width="2.6" x="34.5" y="45.5"><title>2025-02-17</title></rect><rect fill="#444444" height="2.6" width="2.6" x="34.5" y="49.0"><title>2025-02-18</title></rect><rect fill="#444444" height="2.6" width="2.6" x="34.5" y="52.5"><title>2025-02-19</title></rect><rect fill="#444444" height="2.6" width="2.6" x="34.5" y="56.0"><title>2025-02-20</title></rect><rect fill="#444444" height="2.6" width="2.6" x="34.5" y="59.5"><title>2025-02-21</title></rect><rect fill="#444444" height="2.6" width="2.6" x="34.5" y="63.0"><title>2025-02-22</title></rect><rect fill="#444444" height="2.6" width="2.6" x="34.5" y="66.5"><title>2025-02-23</title></rect><rect fill="#444444" height="2.6" width="2.6" x="38.0" y="45.5"><title>2025-02-24</title></rect><rect fill="#444444" height="2.6" width="2.6" x="38.0" y="49.0"><title>2025-02-25</title></rect><rect fill="#444444" height="2.6" width="2.6" x="38.0" y="52.5"><title>2025-02-26</title></rect><rect fill="#444444" height="2.6" width="2.6" x="38.0" y="56.0"><title>2025-02-27</title></rect><rect fill="#444444" height="2.6" width="2.6" x="38.0" y="59.5"><title>2025-02-28</title></rect><rect fill="#444444" height="2.6" width="2.6" x="38.0" y="63.0"><title>2025-03-01</title></rect><rect fill="#444444" height="2.6" width="2.6" x="38.0" y="66.5"><title>2025-03-02</title></rect><rect fill="#444444" height="2.6" width="2.6" x="41.5" y="45.5"><title>2025-03-03</title></rect><rect fill="#444444" height="2.6" width="2.6" x="41.5" y="49.0"><title>2025-03-04</title></rect><rect fill="#444444" height="2.6" width="2.6" x="41.5" y="52.5"><title>2025-03-05</title></rect><rect fill="#444444" height="2.6" width="2.6" x="41.5" y="56.0"><title>2025-03-06</title></rect><rect fill="#444444" height="2.6" width="2.6" x="41.5" y="59.5"><title>2025-03-07</title></rect><rect fill="#444444" height="2.6" width="2.6" x="41.5" y="63.0"><title>2025-03-08</title></rect><rect fill="#444444" height="2.6" width="2.6" x="41.5" y="66.5"><title>2025-03-09</title></rect><rect fill="#444444" height="2.6" width="2.6" x="45.0" y="45.5"><title>2025-03-10</title></rect><rect fill="#444444" height="2.6" width="2.6" x="45.0" y="49.0"><title>2025-03-11</title></rect><rect fill="#444444" height="2.6" width="2.6" x="45.0" y="52.5"><title>2025-03-12</title></rect><rect fill="#444444" height="2.6" width="2.6" x="45.0" y="56.0"><title>2025-03-13</title></rect><rect fill="#444444" height="2.6" width="2.6" x="45.0" y="59.5"><title>2025-03-14</title></rect><rect fill="#444444" height="2.6" width="2.6" x="45.0" y="63.0"><title>2025-03-15</title></rect><rect fill="#444444" height="2.6" width="2.6" x="45.0" y="66.5"><title>2025-03-16</title></rect><rect fill="#444444" height="2.6" width="2.6" x="48.5" y="45.5"><title>2025-03-17</title></rect><rect fill="#444444" height="2.6" width="2.6" x="48.5" y="49.0"><title>2025-03-18</title></rect><rect fill="#444444" height="2.6" width="2.6" x="48.5" y="52.5"><title>2025-03-19</title></rect><rect fill="#444444" height="2.6" width="2.6" x="48.5" y="56.0"><title>2025-03-20</title></rect><rect fill="#444444" height="2.6" width="2.6" x="48.5" y="59.5"><title>2025-03-21</title></rect><rect fill="#444444" height="2.6" width="2.6" x="48.5" y="63.0"><title>2025-03-22</title></rect><rect fill="#444444" height="2.6" width="2.6" x="48.5" y="66.5"><title>2025-03-23</title></rect><rect fill="#444444" height="2.6" width="2.6" x="52.0" y="45.5"><title>2025-03-24</title></rect><rect fill="#444444" height="2.6" width="2.6" x="52.0" y="49.0"><title>2025-03-25</title></rect><rect fill="#444444" height="2.6" width="2.6" x="52.0" y="52.5"><title>2025-03-26</title></rect><rect fill="#444444" height="2.6" width="2.6" x="52.0" y="56.0"><title>2025-03-27</title></rect><rect fill="#fed7aa" height="2.6" width="2.6" x="52.0" y="59.5"><title>2025-03-28 running 5.0 km</title></rect><rect fill="#444444" height="2.6" width="2.6" x="52.0" y="63.0"><title>2025-03-29</title></rect><rect fill="#444444" height="2.6" width="2.6" x="52.0" y="66.5"><title>2025-03-30</title></rect><rect fill="#fed7aa" height="2.6" width="2.6" x="55.5" y="45.5"><title>2025-03-31 running 5.2 km</title></rect><rect fill="#444444" height="2.6" width="2.6" x="55.5" y="49.0"><title>2025-04-01</title></rect><rect fill="#444444" height="2.6" width="2.6" x="55.5" y="52.5"><title>2025-04-02</title></rect><rect fill="#444444" height="2.6" width="2.6" x="55.5" y="56.0"><title>2025-04-03</title></rect><rect fill="#444444" height="2.6" width="2.6" x="55.5" y="59.5"><title>2025-04-04</title></rect><rect fill="#444444" height="2.6" width="2.6" x="55.5" y="63.0"><title>2025-04-05</title></rect><rect fill="#444444" height="2.6" width="2.6" x="55.5" y="66.5"><title>2025-04-06</title></rect><rect fill="#444444" height="2.6" width="2.6" x="59.0" y="45.5"><title>2025-04-07</title></rect><rect fill="#fed7aa" height="2.6" width="2.6" x="59.0" y="49.0"><title>2025-04-08 running 5.0 km</title></rect><rect fill="#444444" height="2.6" width="2.6" x="59.0" y="52.5"><title>2025-04-09</title></rect><rect fill="#fed7aa" height="2.6" width="2.6" x="59.0" y="56.0"><title>2025-04-10 running 5.0 km</title></rect><rect fill="#444444" height="2.6" width="2.6" x="59.0" y="59.5"><title>2025-04-11</title></rect><rect fill="#444444" height="2.6" width="2.6" x="59.0" y="63.0"><title>2025-04-12</title></rect><rect fill="#444444" height="2.6" width="2.6" x="59.0" y="66.5"><title>2025-04-13</title></rect><rect fill="#fed7aa" height="2.6" width="2.6" x="62.5" y="45.5"><title>2025-04-14 running 5.0 km</title></rect><rect fill="#fed7aa" height="2.6" width="2.6" x="62.5" y="49.0"><title>2025-04-15 running 5.0 km</title></rect><rect fill="#444444" height="2.6" width="2.6" x="62.5" y="52.5"><title>2025-04-16</title></rect><rect fill="#fed7aa" height="2.6" width="2.6" x="62.5" y="56.0"><title>2025-04-17 running 5.0 km</title></rect><rect fill="#444444" height="2.6" width="2.6" x="62.5" y="59.5"><title>2025-04-18</title></rect><rect fill="#fed7aa" height="2.6" width="2.6" x="62.5" y="63.0"><title>2025-04-19 running 5.1 km</title></rect><rect fill="#e879f9" height="2.6" width="2.6" x="62.5" y="66.5"><title>2025-04-20 training 67.8 min</title></rect><rect fill="#fed7aa" height="2.6" width="2.6" x="66.0" y="45.5"><title>2025-04-21 running 5.0 km</title></rect><rect fill="#fed7aa" height="2.6" width="2.6" x="66.0" y="49.0"><title>2025-04-22 running 5.0 km</title></rect><rect fill="#444444" height="2.6" width="2.6" x="66.0" y="52.5"><title>2025-04-23</title></rect><rect fill="#fed7aa" height="2.6" width="2.6" x="66.0" y="56.0"><title>2025-04-24 running 5.0 km</title></rect><rect fill="#fed7aa" height="2.6" width="2.6" x="66.0" y="59.5"><title>2025-04-25 running 5.0 km</title></rect><rect fill="#fae8ff" height="2.6" width="2.6" x="66.0" y="63.0"><title>2025-04-26 training 12.7 min</title></rect><rect fill="#fb923c" height="2.6" width="2.6" x="66.0" y="66.5"><title>2025-04-27 running 11.1 km</title></rect><rect fill="#e879f9" height="2.6" width="2.6" x="69.5" y="45.5"><title>2025-04-28 training 59.2 min</title></rect><rect fill="#fae8ff" height="2.6" width="2.6" x="69.5" y="49.0"><title>2025-04-29 training 12.7 min</title></rect><rect fill="#444444" height="2.6" width="2.6" x="69.5" y="52.5"><title>2025-04-30</title></rect><rect fill="#fed7aa" height="2.6" width="2.6" x="69.5" y="56.0"><title>2025-05-01 running 4.0 km</title></rect><rect fill="#4ade80" height="2.6" width="2.6" x="69.5" y="59.5"><title>2025-05-02 walking 6.1 km</title></rect><rect fill="#fae8ff" height="2.6" width="2.6" x="69.5" y="63.0"><title>2025-05-03 training 15.0 min</title></rect><rect fill="#444444" height="2.6" width="2.6" x="69.5" y="66.5"><title>2025-05-04</title></rect><rect fill="#444444" height="2.6" width="2.6" x="73.0" y="45.5"><title>2025-05-05</title></rect><rect fill="#444444" height="2.6" width="2.6" x="73.0" y="49.0"><title>2025-05-06</title></rect><rect fill="#fed7aa" height="2.6" width="2.6" x="73.0" y="52.5"><title>2025-05-07 running 5.0 km</title></rect><rect fill="#fae8ff" height="2.6" width="2.6" x="73.0" y="56.0"><title>2025-05-08 training 13.7 min</title></rect><rect fill="#fae8ff" height="2.6" width="2.6" x="73.0" y="59.5"><title>2025-05-09 training 11.8 min</title></rect><rect fill="#444444" height="2.6" width="2.6" x="73.0" y="63.0"><title>2025-05-10</title></rect><rect fill="#fae8ff" height="2.6" width="2.6" x="73.0" y="66.5"><title>2025-05-11 training 13.9 min</title></rect><rect fill="#fed7aa" height="2.6" width="2.6" x="76.5" y="45.5"><title>2025-05-12 running 5.0 km</title></rect><rect fill="#fae8ff" height="2.6" width="2.6" x="76.5" y="49.0"><title>2025-05-13 training 14.4 min</title></rect><rect fill="#fae8ff" height="2.6" width="2.6" x="76.5" y="52.5"><title>2025-05-14 training 13.5 min</title></rect><rect fill="#fed7aa" height="2.6" width="2.6" x="76.5" y="56.0"><title>2025-05-15 running 5.0 km</title></rect><rect fill="#444444" height="2.6" width="2.6" x="76.5" y="59.5"><title>2025-05-16</title></rect><rect fill="#fae8ff" height="2.6" width="2.6" x="76.5" y="63.0"><title>2025-05-17 training 21.7 min</title></rect><rect fill="#444444" height="2.6" width="2.6" x="76.5" y="66.5"><title>2025-05-18</title></rect><rect fill="#444444" height="2.6" width="2.6" x="80.0" y="45.5"><title>2025-05-19</title></rect><rect fill="#fed7aa" height="2.6" width="2.6" x="80.0" y="49.0"><title>2025-05-20 running 1.0 km</title></rect><rect fill="#fb923c" height="2.6" width="2.6" x="80.0" y="52.5"><title>2025-05-21 running 7.8 km</title></rect><rect fill="#444444" height="2.6" width="2.6" x="80.0" y="56.0"><title>2025-05-22</title></rect><rect fill="#444444" height="2.6" width="2.6" x="80.0" y="59.5"><title>2025-05-23</title></rect><rect fill="#fed7aa" height="2.6" width="2.6" x="80.0" y="63.0"><title>2025-05-24 running 5.0 km</title></rect><rect fill="#fae8ff" height="2.6" width="2.6" x="80.0" y="66.5"><title>2025-05-25 training 16.2 min</title></rect><rect fill="#fae8ff" height="2.6" width="2.6" x="83.5" y="45.5"><title>2025-05-26 training 14.6 min</title></rect><rect fill="#fae8ff" height="2.6" width="2.6" x="83.5" y="49.0"><title>2025-05-27 training 21.6 min</title></rect><rect fill="#fed7aa" height="2.6" width="2.6" x="83.5" y="52.5"><title>2025-05-28 running 1.5 km</title></rect><rect fill="#fed7aa" height="2.6" width="2.6" x="83.5" y="56.0"><title>2025-05-29 running 5.0 km</title></rect><rect fill="#444444" height="2.6" width="2.6" x="83.5" y="59.5"><title>2025-05-30</title></rect><rect fill="#4ade80" height="2.6" width="2.6" x="83.5" y="63.0"><title>2025-05-31 walking 6.0 km</title></rect><rect fill="#444444" height="2.6" width="2.6" x="83.5" y="66.5"><title>2025-06-01</title></rect><rect fill="#444444" height="2.6" width="2.6" x="87.0" y="45.5"><title>2025-06-02</title></rect><rect fill="#fed7aa" height="2.6" width="2.6" x="87.0" y="49.0"><title>2025-06-03 running 5.0 km</title></rect><rect fill="#444444" height="2.6" width="2.6" x="87.0" y="52.5"><title>2025-06-04</title></rect><rect fill="#444444" height="2.6" width="2.6" x="87.0" y="56.0"><title>2025-06-05</title></rect><rect fill="#fed7aa" height="2.6" width="2.6" x="87.0" y="59.5"><title>2025-06-06 running 5.0 km</title></rect><rect fill="#444444" height="2.6" width="2.6" x="87.0" y="63.0"><title>2025-06-07</title></rect><rect fill="#fb923c" height="2.6" width="2.6" x="87.0" y="66.5"><title>2025-06-08 running 10.0 km</title></rect><rect fill="#444444" height="2.6" width="2.6" x="90.5" y="45.5"><title>2025-06-09</title></rect><rect fill="#fed7aa" height="2.6" width="2.6" x="90.5" y="49.0"><title>2025-06-10 running 5.0 km</title></rect><rect fill="#444444" height="2.6" width="2.6" x="90.5" y="52.5"><title>2025-06-11</title></rect><rect fill="#fed7aa" height="2.6" width="2.6" x="90.5" y="56.0"><title>2025-06-12 running 4.0 km</title></rect><rect fill="#444444" height="2.6" width="2.6" x="90.5" y="59.5"><title>2025-06-13</title></rect><rect fill="#444444" height="2.6" width="2.6" x="90.5" y="63.0"><title>2025-06-14</title></rect><rect fill="#444444" height="2.6" width="2.6" x="90.5" y="66.5"><title>2025-06-15</title></rect><rect fill="#fed7aa" height="2.6" width="2.6" x="94.0" y="45.5"><title>2025-06-16 running 5.0 km</title></rect><rect fill="#444444" height="2.6" width="2.6" x="94.0" y="49.0"><title>2025-06-17</title></rect><rect fill="#fed7aa" height="2.6" width="2.6" x="94.0" y="52.5"><title>2025-06-18 running 5.0 km</title></rect><rect fill="#444444" height="2.6" width="2.6" x="94.0" y="56.0"><title>2025-06-19</title></rect><rect fill="#444444" height="2.6" width="2.6" x="94.0" y="59.5"><title>2025-06-20</title></rect><rect fill="#fed7aa" height="2.6" width="2.6" x="94.0" y="63.0"><title>2025-06-21 running 5.0 km</title></rect><rect fill="#444444" height="2.6" width="2.6" x="94.0" y="66.5"><title>2025-06-22</title></rect><rect fill="#fed7aa" height="2.6" width="2.6" x="97.5" y="45.5"><title>2025-06-23 running 5.0 km</title></rect><rect fill="#444444" height="2.6" width="2.6" x="97.5" y="49.0"><title>2025-06-24</title></rect><rect fill="#fed7aa" height="2.6" width="2.6" x="97.5" y="52.5"><title>2025-06-25 running 5.0 km</title></rect><rect fill="#444444" height="2.6" width="2.6" x="97.5" y="56.0"><title>2025-06-26</title></rect><rect fill="#444444" height="2.6" width="2.6" x="97.5" y="59.5"><title>2025-06-27</title></rect><rect fill="#444444" height="2.6" width="2.6" x="97.5" y="63.0"><title>2025-06-28</title></rect><rect fill="#444444" height="2.6" width="2.6" x="97.5" y="66.5"><title>2025-06-29</title></rect><rect fill="#444444" height="2.6" width="2.6" x="101.0" y="45.5"><title>2025-06-30</title></rect><rect fill="#fed7aa" height="2.6" width="2.6" x="101.0" y="49.0"><title>2025-07-01 running 5.0 km</title></rect><rect fill="#444444" height="2.6" width="2.6" x="101.0" y="52.5"><title>2025-07-02</title></rect><rect fill="#444444" height="2.6" width="2.6" x="101.0" y="56.0"><title>2025-07-03</title></rect><rect fill="#444444" height="2.6" width="2.6" x="101.0" y="59.5"><title>2025-07-04</title></rect><rect fill="#fed7aa" height="2.6" width="2.6" x="101.0" y="63.0"><title>2025-07-05 running 5.0 km</title></rect><rect fill="#444444" height="2.6" width="2.6" x="101.0" y="66.5"><title>2025-07-06</title></rect><rect fill="#fed7aa" height="2.6" width="2.6" x="104.5" y="45.5"><title>2025-07-07 running 5.0 km</title></rect><rect fill="#444444" height="2.6" width="2.6" x="104.5" y="49.0"><title>2025-07-08</title></rect><rect fill="#444444" height="2.6" width="2.6" x="104.5" y="52.5"><title>2025-07-09</title></rect><rect fill="#fed7aa" height="2.6" width="2.6" x="104.5" y="56.0"><title>2025-07-10 running 5.0 km</title></rect><rect fill="#444444" height="2.6" width="2.6" x="104.5" y="59.5"><title>2025-07-11</title></rect><rect fill="#444444" height="2.6" width="2.6" x="104.5" y="63.0"><title>2025-07-12</title></rect><rect fill="#fed7aa" height="2.6" width="2.6" x="104.5" y="66.5"><title>2025-07-13 running 5.0 km</title></rect><rect fill="#444444" height="2.6" width="2.6" x="108.0" y="45.5"><title>2025-07-14</title></rect><rect fill="#444444" height="2.6" width="2.6" x="108.0" y="49.0"><title>2025-07-15</title></rect><rect fill="#fae8ff" height="2.6" width="2.6" x="108.0" y="52.5"><title>2025-07-16 training 30.1 min</title></rect><rect fill="#fed7aa" height="2.6" width="2.6" x="108.0" y="56.0"><title>2025-07-17 running 3.2 km</title></rect><rect fill="#444444" height="2.6" width="2.6" x="108.0" y="59.5"><title>2025-07-18</title></rect><rect fill="#fae8ff" height="2.6" width="2.6" x="108.0" y="63.0"><title>2025-07-19 training 29.0 min</title></rect><rect fill="#fed7aa" height="2.6" width="2.6" x="108.0" y="66.5"><title>2025-07-20 running 5.0 km</title></rect><rect fill="#fae8ff" height="2.6" width="2.6" x="111.5" y="45.5"><title>2025-07-21 training 20.1 min</title></rect><rect fill="#fed7aa" height="2.6" width="2.6" x="111.5" y="49.0"><title>2025-07-22 running 5.0 km</title></rect><rect fill="#444444" height="2.6" width="2.6" x="111.5" y="52.5"><title>2025-07-23</title></rect><rect fill="#e879f9" height="2.6" width="2.6" x="111.5" y="56.0"><title>2025-07-24 training 58.6 min</title></rect><rect fill="#444444" height="2.6" width="2.6" x="111.5" y="59.5"><title>2025-07-25</title></rect><rect fill="#bbf7d0" height="2.6" width="2.6" x="111.5" y="63.0"><title>2025-07-26 walking 3.0 km</title></rect><rect fill="#444444" height="2.6" width="2.6" x="111.5" y="66.5"><title>2025-07-27</title></rect><rect fill="#bbf7d0" height="2.6" width="2.6" x="115.0" y="45.5"><title>2025-07-28 walking 2.8 km</title></rect><rect fill="#fed7aa" height="2.6" width="2.6" x="115.0" y="49.0"><title>2025-07-29 running 3.3 km</title></rect><rect fill="#444444" height="2.6" width="2.6" x="115.0" y="52.5"><title>2025-07-30</title></rect><rect fill="#bbf7d0" height="2.6" width="2.6" x="115.0" y="56.0"><title>2025-07-31 walking 2.1 km</title></rect><rect fill="#bfdbfe" height="2.6" width="2.6" x="115.0" y="59.5"><title>2025-08-01 cycling 3.3 km</title></rect><rect fill="#fb923c" height="2.6" width="2.6" x="115.0" y="63.0"><title>2025-08-02 running 6.4 km</title></rect><rect fill="#a21caf" height="2.6" width="2.6" x="115.0" y="66.5"><title>2025-08-03 training 180.1 min</title></rect><rect fill="#fae8ff" height="2.6" width="2.6" x="118.5" y="45.5"><title>2025-08-04 training 33.5 min</title></rect><rect fill="#444444" height="2.6" width="2.6" x="118.5" y="49.0"><title>2025-08-05</title></rect><rect fill="#fed7aa" height="2.6" width="2.6" x="118.5" y="52.5"><title>2025-08-06 running 3.0 km</title></rect><rect fill="#fed7aa" height="2.6" width="2.6" x="118.5" y="56.0"><title>2025-08-07 running 3.0 km</title></rect><rect fill="#fed7aa" height="2.6" width="2.6" x="118.5" y="59.5"><title>2025-08-08 running 3.0 km</title></rect><rect fill="#fed7aa" height="2.6" width="2.6" x="118.5" y="63.0"><title>2025-08-09 running 3.0 km</title></rect><rect fill="#c026d3" height="2.6" width="2.6" x="118.5" y="66.5"><title>2025-08-10 training 118.5 min</title></rect><rect fill="#fae8ff" height="2.6" width="2.6" x="122.0" y="45.5"><title>2025-08-11 training 29.3 min</title></rect><rect fill="#e879f9" height="2.6" width="2.6" x="122.0" y="49.0"><title>2025-08-12 training 48.1 min</title></rect><rect fill="#fed7aa" height="2.6" width="2.6" x="122.0" y="52.5"><title>2025-08-13 running 2.1 km</title></rect><rect fill="#e879f9" height="2.6" width="2.6" x="122.0" y="56.0"><title>2025-08-14 training 53.9 min</title></rect><rect fill="#fed7aa" height="2.6" width="2.6" x="122.0" y="59.5"><title>2025-08-15 running 5.0 km</title></rect><rect fill="#fed7aa" height="2.6" width="2.6" x="122.0" y="63.0"><title>2025-08-16 running 5.1 km</title></rect><rect fill="#e879f9" height="2.6" width="2.6" x="122.0" y="66.5"><title>2025-08-17 training 60.1 min</title></rect><rect fill="#fed7aa" height="2.6" width="2.6" x="125.5" y="45.5"><title>2025-08-18 running 5.0 km</title></rect><rect fill="#e879f9" height="2.6" width="2.6" x="125.5" y="49.0"><title>2025-08-19 training 50.4 min</title></rect><rect fill="#444444" height="2.6" width="2.6" x="125.5" y="52.5"><title>2025-08-20</title></rect><rect fill="#c026d3" height="2.6" width="2.6" x="125.5" y="56.0"><title>2025-08-21 training 117.1 min</title></rect><rect fill="#444444" height="2.6" width="2.6" x="125.5" y="59.5"><title>2025-08-22</title></rect><rect fill="#c026d3" height="2.6" width="2.6" x="125.5" y="63.0"><title>2025-08-23 training 94.8 min</title></rect><rect fill="#444444" height="2.6" width="2.6" x="125.5" y="66.5"><title>2025-08-24</title></rect><rect fill="#fed7aa" height="2.6" width="2.6" x="129.0" y="45.5"><title>2025-08-25 running 4.7 km</title></rect><rect fill="#e879f9" height="2.6" width="2.6" x="129.0" y="49.0"><title>2025-08-26 training 67.9 min</title></rect><rect fill="#444444" height="2.6" width="2.6" x="129.0" y="52.5"><title>2025-08-27</title></rect><rect fill="#e879f9" height="2.6" width="2.6" x="129.0" y="56.0"><title>2025-08-28 training 54.6 min</title></rect><rect fill="#444444" height="2.6" width="2.6" x="129.0" y="59.5"><title>2025-08-29</title></rect><rect fill="#c026d3" height="2.6" width="2.6" x="129.0" y="63.0"><title>2025-08-30 training 115.4 min</title></rect><rect fill="#444444" height="2.6" width="2.6" x="129.0" y="66.5"><title>2025-08-31</title></rect><rect fill="#444444" height="2.6" width="2.6" x="132.5" y="45.5"><title>2025-09-01</title></rect><rect fill="#e879f9" height="2.6" width="2.6" x="132.5" y="49.0"><title>2025-09-02 training 71.7 min</title></rect><rect fill="#e879f9" height="2.6" width="2.6" x="132.5" y="52.5"><title>2025-09-03 training 68.6 min</title></rect><rect fill="#e879f9" height="2.6" width="2.6" x="132.5" y="56.0"><title>2025-09-04 training 78.7 min</title></rect><rect fill="#444444" height="2.6" width="2.6" x="132.5" y="59.5"><title>2025-09-05</title></rect><rect fill="#444444" height="2.6" width="2.6" x="132.5" y="63.0"><title>2025-09-06</title></rect><rect fill="#e879f9" height="2.6" width="2.6" x="132.5" y="66.5"><title>2025-09-07 training 59.0 min</title></rect><rect fill="#fae8ff" height="2.6" width="2.6" x="136.0" y="45.5"><title>2025-09-08 training 22.2 min</title></rect><rect fill="#444444" height="2.6" width="2.6" x="136.0" y="49.0"><title>2025-09-09</title></rect><rect fill="#fed7aa" height="2.6" width="2.6" x="136.0" y="52.5"><title>2025-09-10 running 4.9 km</title></rect><rect fill="#444444" height="2.6" width="2.6" x="136.0" y="56.0"><title>2025-09-11</title></rect><rect fill="#444444" height="2.6" width="2.6" x="136.0" y="59.5"><title>2025-09-12</title></rect><rect fill="#e879f9" height="2.6" width="2.6" x="136.0" y="63.0"><title>2025-09-13 training 58.9 min</title></rect><rect fill="#c026d3" height="2.6" width="2.6" x="136.0" y="66.5"><title>2025-09-14 training 128.2 min</title></rect><rect fill="#e879f9" height="2.6" width="2.6" x="139.5" y="45.5"><title>2025-09-15 training 66.5 min</title></rect><rect fill="#fed7aa" height="2.6" width="2.6" x="139.5" y="49.0"><title>2025-09-16 running 4.9 km</title></rect><rect fill="#fed7aa" height="2.6" width="2.6" x="139.5" y="52.5"><title>2025-09-17 running 5.0 km</title></rect><rect fill="#e879f9" height="2.6" width="2.6" x="139.5" y="56.0"><title>2025-09-18 training 90.0 min</title></rect><rect fill="#e879f9" height="2.6" width="2.6" x="139.5" y="59.5"><title>2025-09-19 training 54.1 min</title></rect><rect fill="#60a5fa" height="2.6" width="2.6" x="139.5" y="63.0"><title>2025-09-20 cycling 27.9 km</title></rect><rect fill="#60a5fa" height="2.6" width="2.6" x="139.5" y="66.5"><title>2025-09-21 cycling 36.9 km</title></rect><rect fill="#444444" height="2.6" width="2.6" x="143.0" y="45.5"><title>2025-09-22</title></rect><rect fill="#e879f9" height="2.6" width="2.6" x="143.0" y="49.0"><title>2025-09-23 training 63.0 min</title></rect><rect fill="#e879f9" height="2.6" width="2.6" x="143.0" y="52.5"><title>2025-09-24 training 61.2 min</title></rect><rect fill="#fae8ff" height="2.6" width="2.6" x="143.0" y="56.0"><title>2025-09-25 training 35.0 min</title></rect><rect fill="#444444" height="2.6" width="2.6" x="143.0" y="59.5"><title>2025-09-26</title></rect><rect fill="#bfdbfe" height="2.6" width="2.6" x="143.0" y="63.0"><title>2025-09-27 cycling 9.3 km</title></rect><rect fill="#444444" height="2.6" width="2.6" x="143.0" y="66.5"><title>2025-09-28</title></rect><rect fill="#3b82f6" height="2.6" width="2.6" x="146.5" y="45.5"><title>2025-09-29 cycling 62.8 km</title></rect><rect fill="#444444" height="2.6" width="2.6" x="146.5" y="49.0"><title>2025-09-30</title></rect><rect fill="#c026d3" height="2.6" width="2.6" x="146.5" y="52.5"><title>2025-10-01 training 110.1 min</title></rect><rect fill="#bfdbfe" height="2.6" width="2.6" x="146.5" y="56.0"><title>2025-10-02 cycling 21.4 km</title></rect><rect fill="#4ade80" height="2.6" width="2.6" x="146.5" y="59.5"><title>2025-10-03 walking 6.3 km</title></rect><rect fill="#444444" height="2.6" width="2.6" x="146.5" y="63.0"><title>2025-10-04</title></rect><rect fill="#bfdbfe" height="2.6" width="2.6" x="146.5" y="66.5"><title>2025-10-05 cycling 17.8 km</title></rect><rect fill="#bfdbfe" height="2.6" width="2.6" x="150.0" y="45.5"><title>2025-10-06 cycling 21.4 km</title></rect><rect fill="#444444" height="2.6" width="2.6" x="150.0" y="49.0"><title>2025-10-07</title></rect><rect fill="#60a5fa" height="2.6" width="2.6" x="150.0" y="52.5"><title>2025-10-08 cycling 26.5 km</title></rect><rect fill="#444444" height="2.6" width="2.6" x="150.0" y="56.0"><title>2025-10-09</title></rect><rect fill="#e879f9" height="2.6" width="2.6" x="150.0" y="59.5"><title>2025-10-10 training 58.2 min</title></rect><rect fill="#fae8ff" height="2.6" width="2.6" x="150.0" y="63.0"><title>2025-10-11 training 43.2 min</title></rect><rect fill="#3b82f6" height="2.6" width="2.6" x="150.0" y="66.5"><title>2025-10-12 cycling 61.1 km</title></rect><rect fill="#444444" height="2.6" width="2.6" x="153.5" y="45.5"><title>2025-10-13</title></rect><rect fill="#bfdbfe" height="2.6" width="2.6" x="153.5" y="49.0"><title>2025-10-14 cycling 13.1 km</title></rect><rect fill="#444444" height="2.6" width="2.6" x="153.5" y="52.5"><title>2025-10-15</title></rect><rect fill="#e879f9" height="2.6" width="2.6" x="153.5" y="56.0"><title>2025-10-16 training 46.8 min</title></rect><rect fill="#444444" height="2.6" width="2.6" x="153.5" y="59.5"><title>2025-10-17</title></rect><rect fill="#3b82f6" height="2.6" width="2.6" x="153.5" y="63.0"><title>2025-10-18 cycling 47.4 km</title></rect><rect fill="#bfdbfe" height="2.6" width="2.6" x="153.5" y="66.5"><title>2025-10-19 cycling 10.1 km</title></rect><rect fill="#444444" height="2.6" width="2.6" x="157.0" y="45.5"><title>2025-10-20</title></rect><rect fill="#bfdbfe" height="2.6" width="2.6" x="157.0" y="49.0"><title>2025-10-21 cycling 12.1 km</title></rect><rect fill="#444444" height="2.6" width="2.6" x="157.0" y="52.5"><title>2025-10-22</title></rect><rect fill="#444444" height="2.6" width="2.6" x="157.0" y="56.0"><title>2025-10-23</title></rect><rect fill="#60a5fa" height="2.6" width="2.6" x="157.0" y="59.5"><title>2025-10-24 cycling 32.4 km</title></rect><rect fill="#444444" height="2.6" width="2.6" x="157.0" y="63.0"><title>2025-10-25</title></rect><rect fill="#3b82f6" height="2.6" width="2.6" x="157.0" y="66.5"><title>2025-10-26 cycling 61.9 km</title></rect><rect fill="#444444" height="2.6" width="2.6" x="160.5" y="45.5"><title>2025-10-27</title></rect><rect fill="#444444" height="2.6" width="2.6" x="160.5" y="49.0"><title>2025-10-28</title></rect><rect fill="#60a5fa" height="2.6" width="2.6" x="160.5" y="52.5"><title>2025-10-29 cycling 38.4 km</title></rect><rect fill="#e879f9" height="2.6" width="2.6" x="160.5" y="56.0"><title>2025-10-30 training 61.9 min</title></rect><rect fill="#444444" height="2.6" width="2.6" x="160.5" y="59.5"><title>2025-10-31</title></rect><rect fill="#2563eb" height="2.6" width="2.6" x="160.5" y="63.0"><title>2025-11-01 cycling 75.8 km</title></rect><rect fill="#60a5fa" height="2.6" width="2.6" x="160.5" y="66.5"><title>2025-11-02 cycling 40.0 km</title></rect><rect fill="#444444" height="2.6" width="2.6" x="164.0" y="45.5"><title>2025-11-03</title></rect><rect fill="#bfdbfe" height="2.6" width="2.6" x="164.0" y="49.0"><title>2025-11-04 cycling 8.9 km</title></rect><rect fill="#bfdbfe" height="2.6" width="2.6" x="164.0" y="52.5"><title>2025-11-05 cycling 21.0 km</title></rect><rect fill="#444444" height="2.6" width="2.6" x="164.0" y="56.0"><title>2025-11-06</title></rect><rect fill="#444444" height="2.6" width="2.6" x="164.0" y="59.5"><title>2025-11-07</title></rect><rect fill="#3b82f6" height="2.6" width="2.6" x="164.0" y="63.0"><title>2025-11-08 cycling 61.6 km</title></rect><rect fill="#2563eb" height="2.6" width="2.6" x="164.0" y="66.5"><title>2025-11-09 cycling 75.4 km</title></rect><rect fill="#444444" height="2.6" width="2.6" x="167.5" y="45.5"><title>2025-11-10</title></rect><rect fill="#bfdbfe" height="2.6" width="2.6" x="167.5" y="49.0"><title>2025-11-11 cycling 12.5 km</title></rect><rect fill="#60a5fa" height="2.6" width="2.6" x="167.5" y="52.5"><title>2025-11-12 cycling 38.8 km</title></rect><rect fill="#444444" height="2.6" width="2.6" x="167.5" y="56.0"><title>2025-11-13</title></rect><rect fill="#fb923c" height="2.6" width="2.6" x="167.5" y="59.5"><title>2025-11-14 running 6.1 km</title></rect><rect fill="#fb923c" height="2.6" width="2.6" x="167.5" y="63.0"><title>2025-11-15 running 8.9 km</title></rect><rect fill="#e879f9" height="2.6" width="2.6" x="167.5" y="66.5"><title>2025-11-16 training 60.1 min</title></rect><rect fill="#444444" height="2.6" width="2.6" x="171.0" y="45.5"><title>2025-11-17</title></rect><rect fill="#fae8ff" height="2.6" width="2.6" x="171.0" y="49.0"><title>2025-11-18 training 44.8 min</title></rect><rect fill="#bfdbfe" height="2.6" width="2.6" x="171.0" y="52.5"><title>2025-11-19 cycling 15.7 km</title></rect><rect fill="#bfdbfe" height="2.6" width="2.6" x="171.0" y="56.0"><title>2025-11-20 cycling 12.9 km</title></rect><rect fill="#444444" height="2.6" width="2.6" x="171.0" y="59.5"><title>2025-11-21</title></rect><rect fill="#2563eb" height="2.6" width="2.6" x="171.0" y="63.0"><title>2025-11-22 cycling 70.3 km</title></rect><rect fill="#2563eb" height="2.6" width="2.6" x="171.0" y="66.5"><title>2025-11-23 cycling 91.9 km</title></rect><rect fill="#e879f9" height="2.6" width="2.6" x="174.5" y="45.5"><title>2025-11-24 training 64.9 min</title></rect><rect fill="#e879f9" height="2.6" width="2.6" x="174.5" y="49.0"><title>2025-11-25 training 60.4 min</title></rect><rect fill="#444444" height="2.6" width="2.6" x="174.5" y="52.5"><title>2025-11-26</title></rect><rect fill="#444444" height="2.6" width="2.6" x="174.5" y="56.0"><title>2025-11-27</title></rect><rect fill="#60a5fa" height="2.6" width="2.6" x="174.5" y="59.5"><title>2025-11-28 cycling 31.8 km</title></rect><rect fill="#444444" height="2.6" width="2.6" x="174.5" y="63.0"><title>2025-11-29</title></rect><rect fill="#2563eb" height="2.6" width="2.6" x="174.5" y="66.5"><title>2025-11-30 cycling 78.9 km</title></rect><rect fill="#444444" height="2.6" width="2.6" x="178.0" y="45.5"><title>2025-12-01</title></rect><rect fill="#fed7aa" height="2.6" width="2.6" x="178.0" y="49.0"><title>2025-12-02 running 1.1 km</title></rect><rect fill="#fed7aa" height="2.6" width="2.6" x="178.0" y="52.5"><title>2025-12-03 running 1.9 km</title></rect><rect fill="#fed7aa" height="2.6" width="2.6" x="178.0" y="56.0"><title>2025-12-04 running 2.9 km</title></rect><rect fill="#444444" height="2.6" width="2.6" x="178.0" y="59.5"><title>2025-12-05</title></rect><rect fill="#60a5fa" height="2.6" width="2.6" x="178.0" y="63.0"><title>2025-12-06 cycling 44.2 km</title></rect><rect fill="#bfdbfe" height="2.6" width="2.6" x="178.0" y="66.5"><title>2025-12-07 cycling 10.6 km</title></rect><rect fill="#fae8ff" height="2.6" width="2.6" x="181.5" y="45.5"><title>2025-12-08 training 17.3 min</title></rect><rect fill="#444444" height="2.6" width="2.6" x="181.5" y="49.0"><title>2025-12-09</title></rect><rect fill="#444444" height="2.6" width="2.6" x="181.5" y="52.5"><title>2025-12-10</title></rect><rect fill="#444444" height="2.6" width="2.6" x="181.5" y="56.0"><title>2025-12-11</title></rect><rect fill="#444444" height="2.6" width="2.6" x="181.5" y="59.5"><title>2025-12-12</title></rect><rect fill="#16a34a" height="2.6" width="2.6" x="181.5" y="63.0"><title>2025-12-13 walking 14.7 km</title></rect><rect fill="#444444" height="2.6" width="2.6" x="181.5" y="66.5"><title>2025-12-14</title></rect><rect fill="#2563eb" height="2.6" width="2.6" x="185.0" y="45.5"><title>2025-12-15 cycling 88.9 km</title></rect><rect fill="#bfdbfe" height="2.6" width="2.6" x="185.0" y="49.0"><title>2025-12-16 cycling 10.8 km</title></rect><rect fill="#bfdbfe" height="2.6" width="2.6" x="185.0" y="52.5"><title>2025-12-17 cycling 10.5 km</title></rect><rect fill="#bfdbfe" height="2.6" width="2.6" x="185.0" y="56.0"><title>2025-12-18 cycling 8.6 km</title></rect><rect fill="#444444" height="2.6" width="2.6" x="185.0" y="59.5"><title>2025-12-19</title></rect><rect fill="#bfdbfe" height="2.6" width="2.6" x="185.0" y="63.0"><title>2025-12-20 cycling 18.0 km</title></rect><rect fill="#444444" height="2.6" width="2.6" x="185.0" y="66.5"><title>2025-12-21</title></rect><rect fill="#bfdbfe" height="2.6" width="2.6" x="188.5" y="45.5"><title>2025-12-22 cycling 13.1 km</title></rect><rect fill="#bfdbfe" height="2.6" width="2.6" x="188.5" y="49.0"><title>2025-12-23 cycling 6.7 km</title></rect><rect fill="#444444" height="2.6" width="2.6" x="188.5" y="52.5"><title>2025-12-24</title></rect><rect fill="#bfdbfe" height="2.6" width="2.6" x="188.5" y="56.0"><title>2025-12-25 cycling 12.6 km</title></rect><rect fill="#bfdbfe" height="2.6" width="2.6" x="188.5" y="59.5"><title>2025-12-26 cycling 6.2 km</title></rect><rect fill="#ea580c" height="2.6" width="2.6" x="188.5" y="63.0"><title>2025-12-27 running 22.5 km</title></rect><rect fill="#444444" height="2.6" width="2.6" x="188.5" y="66.5"><title>2025-12-28</title></rect><rect fill="#e879f9" height="2.6" width="2.6" x="192.0" y="45.5"><title>2025-12-29 training 66.0 min</title></rect><rect fill="#444444" height="2.6" width="2.6" x="192.0" y="49.0"><title>2025-12-30</title></rect><rect fill="#444444" height="2.6" width="2.6" x="192.0" y="52.5"><title>2025-12-31</title></rect></svg>