<?xml version="1.0" encoding="utf-8" ?>
<svg baseProfile="full" height="200mm" version="1.1" viewBox="0,0,200,200" width="200mm" xmlns="http://www.w3.org/2000/svg" xmlns:ev="http://www.w3.org/2001/xml-events" xmlns:xlink="http://www.w3.org/1999/xlink"><defs /><rect fill="#1a1a1a" height="200" width="200" x="0" y="0" /><rect fill="#1a1a1a" height="200" width="180" x="10" y="0" /><text alignment-baseline="middle" fill="#e1ed5e" style="dominant-baseline: central; font-size:9.0px; font-family:Arial;" text-anchor="middle" x="100.0" y="100.0">2026</text><line stroke="#e1ed5e" stroke-width="0.3" x1="100.0" x2="100.0" y1="15.0" y2="10.0" /><path d="M 100.0 14.0 a86.0,86.0 0 0,1 42.46469731375804,11.215312516191453" fill="none" id="id121" stroke="none" /><text fill="#e1ed5e" style="font-size:6.75px; font-family:Arial;" text-anchor="middle"><textPath startOffset="22.20632615414155" xlink:href="#id121">January</textPath></text><path d="M 101.08401301168833 79.027996857942 l 0.05628012772442521 -1.0888310405368342 a22.090284590193406,22.090284590193406 0 0,0 0.379572049146442,0.022896822570817127 l -0.07501422571047911 1.087700948585713" fill="#ff0e01" stroke="none" /><path d="M 101.44485096284872 79.0497635885617 l 0.07489168906288765 -1.0859241758928089 a22.088503597090597,22.088503597090597 0 0,0 0.3790911142236508,0.029424766513227035 l -0.09357299264887968 1.0844741471911172" fill="#ff0e01" stroke="none" /><path d="M 101.80526077348638 79.07773832637324 l 0.0520954065268393 -0.6037652528413071 a21.60600859063195,21.60600859063195 0 0,0 0.3702599807447984,0.035160646608820414 l -0.06248051436188186 0.6027790617173084" fill="#ff0701" stroke="none" /><path d="M 102.16513564639614 79.11191278185805 l 0.11338304291159743 -1.0938598204403054 a22.09972042865157,22.09972042865157 0 0,0 0.3780454962427605,0.04247781636518121 l -0.1321952426640832 1.0917460506045233" fill="#ff0e01" stroke="none" /><path d="M 102.52436894288641 79.15227682838746 l 0.027055585694461017 -0.22344093655304695 a21.225073003367736,21.225073003367736 0 0,0 0.36232743133586043,0.04704049945430227 l -0.03089774553816756 0.22294211393460797" fill="#ff0200" stroke="none" /><path d="M 102.88285421437855 79.19881850522331 l 0.08346481843675953 -0.6022388603878371 a21.607995082938935,21.607995082938935 0 0,0 0.3679852053525735,0.054231453671121095 l -0.09381900421798883 0.6007129225557472" fill="#ff0701" stroke="none" /><path d="M 103.2404852339499 79.25152402106235 l 0.03953882999173784 -0.25316284602195305 a21.25623182020009,21.25623182020009 0 0,0 0.3610227179908032,0.059571841830497116 l -0.043890754121416256 0.25244474125183125" fill="#ff0200" stroke="none" /><path d="M 103.59715602781102 79.31037775812273 l 0.30254773164282617 -1.7401520060379685 a22.766257097378574,22.766257097378574 0 0,0 0.3855139094311205,0.07045020280564186 l -0.3324567621768476 1.7346863218815882" fill="#ff1802" stroke="none" /><path d="M 104.307194497241 79.44645832069477 l 0.2525100172643223 -1.2049549115111464 a22.23112860725176,22.23112860725176 0 0,0 0.3738611818061717,0.081711573836885 l -0.273213923224022 1.2004298395783908" fill="#ff1001" stroke="none" /><path d="M 104.66035177308747 79.52364482259891 l 0.4044205289514113 -1.7769170215138783 a22.82235838011712,22.82235838011712 0 0,0 0.3823030993227407,0.0904787918919454 l -0.4349473152366755 1.7696923174810644" fill="#ff1902" stroke="none" /><path d="M 105.01212808612495 79.60689891045804 l 0.10241435578355954 -0.41669851101693867 a21.429099463241677,21.429099463241677 0 0,0 0.3574487174027648,0.09112163699365733 l -0.10957196187134935 0.4148738778544135" fill="#ff0500" stroke="none" /><path d="M 105.36241919743992 79.69619591428918 l 0.153526249086493 -0.5812986207707078 a21.601230734134987,21.601230734134987 0 0,0 0.3586854643980248,0.09804228684189459 l -0.16350960270822865 0.5785697931025195" fill="#ff0701" stroke="none" /><path d="M 105.71112130821622 79.79150937346287 l 0.5248807978017143 -1.8572620173845025 a22.930005713235097,22.930005713235097 0 0,0 0.3789017281023944,0.11061180460259007 l -0.5567727436275358 1.847951883863209" fill="#ff1a02" stroke="none" /><path d="M 106.0581310904928 79.89281104454417 l 0.09569496795018001 -0.31761557713404337 a21.331718527865384,21.331718527865384 0 0,0 0.3506676790969959,0.10895415485823227 l -0.10114801975789418 0.3159212873932905" fill="#ff0300" stroke="none" /><path d="M 106.40334571778207 80.00007090966166 l 0.05918337967197431 -0.18485077160195 a21.194093998339035,21.194093998339035 0 0,0 0.3464903112685084,0.11423240797007947 l -0.06235651318290014 0.1838046393726343" fill="#ff0100" stroke="none" /><path d="M 107.08798089147638 80.2323363322302 l 0.2743475283548396 -0.765127580285108 a21.812826414695877,21.812826414695877 0 0,0 0.352347440224745,0.12977253581714215 l -0.2874772943521611 0.7602917766616412" fill="#ff0a01" stroke="none" /><path d="M 107.76421540070413 80.48803036053334 l 0.21600890213890586 -0.5428441797231206 a21.58424279992356,21.58424279992356 0 0,0 0.3440282965645297,0.14033778020476295 l -0.22532106829182305 0.5390455133347782" fill="#ff0701" stroke="none" /><path d="M 108.09893153111575 80.62456947434976 l 0.3901056538857476 -0.933266933482196 a22.011518457728226,22.011518457728226 0 0,0 0.34832309996196953,0.14913377316291973 l -0.40611251163803236 0.9264136323564854" fill="#ff0d01" stroke="none" /><path d="M 108.43124777332544 80.76684994638697 l 0.5463924238555259 -1.2464166347261536 a22.36091847961911,22.36091847961911 0 0,0 0.3511919410516667,0.15756958695051543 l -0.5677664833739728 1.236826717259107" fill="#ff1202" stroke="none" /><path d="M 108.76106565485865 80.91482961587045 l 0.38533390311784715 -0.83941423172732 a21.923633298077977,21.923633298077977 0 0,0 0.34161383345756047,0.16039227534973427 l -0.3997259478750056 0.8326569737375829" fill="#ff0c01" stroke="none" /><path d="M 109.08828744355905 81.06846463323043 l 0.30256812246168546 -0.6302704603935037 a21.69913397998855,21.69913397998855 0 0,0 0.3353329741665033,0.16454643408838582 l -0.31337236363862064 0.6249688661702858" fill="#ff0901" stroke="none" /><path d="M 109.41281617654863 81.2277094730956 l 0.295322490076847 -0.5889714065237568 a21.658864698437974,21.658864698437974 0 0,0 0.3318339317836452,0.16997822835941867 l -0.30541690944924776 0.5838006528518376" fill="#ff0801" stroke="none" /><path d="M 109.73455568895987 81.39251694778311 l 0.4959789934484136 -0.9480577244335491 a22.06995729391421,22.06995729391421 0 0,0 0.33510072409872266,0.17899920154054139 l -0.5122247640754474 0.9393797963912536" fill="#ff0e01" stroke="none" /><path d="M 110.05341064243156 81.56283822128135 l 0.10099877529473635 -0.18522378382736832 a21.210970620481536,21.210970620481536 0 0,0 0.31904926982909076,0.17755057323257384 l -0.10417213419586221 0.18345781303461453" fill="#ff0200" stroke="none" /><line stroke="#e1ed5e" stroke-width="0.3" x1="143.23703022742887" x2="145.7803849466894" y1="26.81831364943548" y2="22.513508569990506" /><path d="M 143.74570117128098 25.957352633546492 a86.0,86.0 0 0,1 28.547481713284135,27.462654790039103" fill="none" id="id122" stroke="none" /><text fill="#e1ed5e" style="font-size:6.75px; font-family:Arial;" text-anchor="middle"><textPath startOffset="19.985693538727396" xlink:href="#id122">February</textPath></text><path d="M 110.99172775467656 82.1063720568725 l 0.19968342587465307 -0.32506817933967846 a21.381500710075684,21.381500710075684 0 0,0 0.3119467767193354,0.19534104296359556 l -0.2052493549662517 0.3215827950531387" fill="#ff0400" stroke="none" /><path d="M 111.2981086023043 82.29822771554956 l 1.0300979354361726 -1.613947938157954 a22.914661772657034,22.914661772657034 0 0,0 0.3306618147674057,0.21507164228148754 l -1.0577267759878584 1.5959773717169385" fill="#ff1a02" stroke="none" /><path d="M 111.60114157652 82.49532879139004 l 0.2480285115621464 -0.3742439928535596 a21.44897294877833,21.44897294877833 0 0,0 0.30600055263119336,0.2066129390936154 l -0.25443375859988165 0.3699191414612741" fill="#ff0500" stroke="none" /><path d="M 111.90073688211348 82.69761687909136 l 0.2938155529127773 -0.42717600714449644 a21.51846592965532,21.51846592965532 0 0,0 0.30337846122386114,0.21253599972754061 l -0.30112515372028936 0.42205516465302023" fill="#ff0601" stroke="none" /><path d="M 112.48926042617603 83.11751280151076 l 0.10311454028101329 -0.1393861483281856 a21.173381391052015,21.173381391052015 0 0,0 0.29113787212414044,0.21927900936282943 l -0.10549856616353667 0.13759054945950883" fill="#ff0100" stroke="none" /><path d="M 112.77801427241765 83.33499621200491 l 0.15967801154526687 -0.20825103263544245 a21.262422483725725,21.262422483725725 0 0,0 0.28852848601466663,0.22520105989745773 l -0.16323905271936381 0.20547158351476064" fill="#ff0200" stroke="none" /><path d="M 114.16331599549186 84.49514656593476 l 0.0678724128868845 -0.07430123103674773 a21.10063467277566,21.10063467277566 0 0,0 0.26606103372743317,0.24727473447069134 l -0.0691413304091645 0.07312191049141588" fill="#ff0000" stroke="none" /><path d="M 114.42810811169701 84.74124197986012 l 1.1558126713876586 -1.2223547074074002 a22.682276422607565,22.682276422607565 0 0,0 0.2813863371954402,0.2706934334399107 l -1.176682252195517 1.2022781872051875" fill="#ff1702" stroke="none" /><path d="M 114.68862486808459 84.99185889309783 l 0.36627469956136666 -0.3742421379995403 a21.523654784560627,21.523654784560627 0 0,0 0.2625518954934168,0.26142441421545043 l -0.37266239522210604 0.3678818731339712" fill="#ff0601" stroke="none" /><path d="M 114.94478906791727 85.2469230424477 l 2.7482518686579964 -2.7129972281836148 a24.861766732172484,24.861766732172484 0 0,0 0.29802834066499945,0.3071444024860273 l -2.794544473026105 2.665288630147473" fill="#ff3505" stroke="none" /><path d="M 115.19652480421416 85.50635884689758 l 2.212116125656512 -2.1097992947285986 a24.056911974105056,24.056911974105056 0 0,0 0.2832216558323253,0.30212111538304914 l -2.2481051034593 2.071408762467495" fill="#ff2a04" stroke="none" /><path d="M 115.4437574822437 85.77008943001954 l 0.6283823176727644 -0.5789927868604041 a21.85445712847408,21.85445712847408 0 0,0 0.252529666814688,0.27884956539579836 l -0.6382556251034881 0.5680904341950567" fill="#ff0b01" stroke="none" /><path d="M 115.68641384162765 86.03803664274999 l 2.954788845540277 -2.629960805978822 a24.95568843094524,24.95568843094524 0 0,0 0.28284080459910144,0.3233359336336317 l -2.999621513717227 2.5787093161422425" fill="#ff3705" stroke="none" /><path d="M 115.9244219780498 86.31012108654704 l 2.0061973576958936 -1.7246841952067844 a23.64563100435833,23.64563100435833 0 0,0 0.2626797500341312,0.3109299705821939 l -2.035587721217142 1.6898952749954839" fill="#ff2403" stroke="none" /><path d="M 116.15771136456269 86.58626213691792 l 9.125194933641238 -7.575514256173927 a32.85991563302396,32.85991563302396 0 0,0 0.3575495367803791,0.43831345495963114 l -9.254242962498026 7.4173166316061945" fill="#ffa10e" stroke="none" /><path d="M 116.38621287248628 86.86637796730983 l 2.1304525313616987 -1.7075671189695132 a23.730313801410254,23.730313801410254 0 0,0 0.25272323085286386,0.3209328387372238 l -2.1595298428085266 1.670641886279251" fill="#ff2503" stroke="none" /><path d="M 116.82858285166822 87.43820079747576 l 0.3277868189926571 -0.244678487648872 a21.40903760343453,21.40903760343453 0 0,0 0.2179005602836014,0.2972161193452573 l -0.33194999178988494 0.238999924632121" fill="#ff0400" stroke="none" /><path d="M 117.04232023915458 87.72973835380427 l 2.128952179870668 -1.5328194701584685 a23.62335146563951,23.62335146563951 0 0,0 0.23475692041982915,0.33204701552404176 l -2.15502172009438 1.4959459543026337" fill="#ff2403" stroke="none" /><path d="M 117.2510076193507 88.02491185347247 l 4.34039457089073 -3.0129606759215113 a26.283649975695507,26.283649975695507 0 0,0 0.25479562323705696,0.3738811369718331 l -4.39161465979652 2.937801515679272" fill="#ff4906" stroke="none" /><path d="M 117.45458315368197 88.32363383020206 l 4.119835592836139 -2.755992997241751 a25.956666491992888,25.956666491992888 0 0,0 0.24523285556683794,0.3735064634874404 l -4.166665083760902 2.6846684697766365" fill="#ff4406" stroke="none" /><path d="M 117.65298651832404 88.62581576622439 l 0.1210736424699687 -0.07801025134632263 a21.144029254722998,21.144029254722998 0 0,0 0.19449728362765123,0.30764799407525006 l -0.12239852234357561 0.07591460955686635" fill="#ff0100" stroke="none" /><line stroke="#e1ed5e" stroke-width="0.3" x1="172.23445277983987" x2="176.4835382374775" y1="55.19839476539836" y2="52.563006222186495" /><path d="M 173.08426987136738 54.67131705675599 a86.0,86.0 0 0,1 12.851231095245387,41.99856678651699" fill="none" id="id123" stroke="none" /><text fill="#e1ed5e" style="font-size:6.75px; font-family:Arial;" text-anchor="middle"><textPath startOffset="22.20632615414155" xlink:href="#id123">March</textPath></text><path d="M 117.84615892207809 88.93136811851018 l 0.9415103029567267 -0.5839481202403451 a22.10789758448419,22.10789758448419 0 0,0 0.1977964137728919,0.32512529717743033 l -0.9514225150158424 0.5676550498558333" fill="#ff0e01" stroke="none" /><path d="M 118.03404312379186 89.2402003453031 l 2.2475160167296693 -1.3409539887830175 a23.617152239647034,23.617152239647034 0 0,0 0.20528965037661945,0.3509065581115326 l -2.270265341576616 1.3020680183175897" fill="#ff2403" stroke="none" /><path d="M 118.21658344932153 89.55222093294921 l 0.46193520164412305 -0.2649342530940458 a21.53251693774048,21.53251693774048 0 0,0 0.1816343256791422,0.32310719808049426 l -0.4664271686156982 0.2569435450787576" fill="#ff0601" stroke="none" /><path d="M 118.3937258080291 89.86733742301442 l 0.7326698442951629 -0.4036102522162654 a21.836484510576003,21.836484510576003 0 0,0 0.1785308348574926,0.3307905228562112 l -0.7395087783711204 0.3909387460275955" fill="#ff0b01" stroke="none" /><path d="M 118.89224826269711 90.83032412892265 l 3.7976622500017805 -1.8432603370505958 a25.22135608960349,25.22135608960349 0 0,0 0.18620783818534983,0.3922011961376506 l -3.8288282820288866 1.7776167252724049" fill="#ff3a05" stroke="none" /><path d="M 119.34039704204932 91.81776055985345 l 1.1447637983167689 -0.48430916283024383 a22.242996186292608,22.242996186292608 0 0,0 0.14614529011339994,0.3539024121500266 l -1.1529307753163662 0.4645321802269141" fill="#ff1001" stroke="none" /><path d="M 119.47837535516314 92.15188598940014 l 1.2296112189105437 -0.4954278197624239 a22.32566680363703,22.32566680363703 0 0,0 0.1405522454587055,0.35769013392613486 l -1.2379570142509497 0.47418868094050465" fill="#ff1201" stroke="none" /><path d="M 119.61058180528143 92.48833698450437 l 1.2824704696053526 -0.4912391733531027 a22.373334056537743,22.373334056537743 0 0,0 0.1346612745079376,0.3608252663077612 l -1.2907363326149155 0.46909077001600824" fill="#ff1202" stroke="none" /><path d="M 119.7369772167798 92.82701384747503 l 1.0378843120976715 -0.37719706096991423 a22.1043013484112,22.1043013484112 0 0,0 0.12688597278107347,0.3587237317009487 l -1.0442233656885547 0.35927570284235105" fill="#ff0e01" stroke="none" /><path d="M 119.97218684219823 93.5106431181261 l 3.261940682168424 -1.0598687755799236 a24.429807405006102,24.429807405006102 0 0,0 0.12650512323301347,0.40105581129097556 l -3.2797012891696435 1.003562797862529" fill="#ff2f04" stroke="none" /><path d="M 120.28053869075195 94.5502522615342 l 1.6409564937353707 -0.4409547042620259 a22.699170169683747,22.699170169683747 0 0,0 0.09815085309083275,0.37821527521177384 l -1.6483036786965062 0.41264300350140165" fill="#ff1702" stroke="none" /><path d="M 120.37134235888165 94.90015583598534 l 3.097916178530968 -0.7755448544017817 a24.19351757007739,24.19351757007739 0 0,0 0.09765793982172022,0.4048552082015635 l -3.1108069186135077 0.722104414540812" fill="#ff2c04" stroke="none" /><path d="M 120.45610955862082 95.25157060432595 l 2.059411280573832 -0.4780463770217917 a23.114167250039223,23.114167250039223 0 0,0 0.0866292715405602,0.388342038023196 l -2.0673349391164297 0.44252616944863177" fill="#ff1d02" stroke="none" /><path d="M 120.53481517161879 95.60439243477599 l 9.064805423146002 -1.9403791542440847 a30.270154724799482,30.270154724799482 0 0,0 0.10467809280366293,0.5104475561786485 l -9.096862811864662 1.7840559419020245" fill="#ff7f0b" stroke="none" /><path d="M 120.6074358757038 95.95851677861258 l 0.7839443036502787 -0.15374536496509408 a21.798878156212805,21.798878156212805 0 0,0 0.069044600006556,0.3688390140773752 l -0.786474627566694 0.14022827342515615" fill="#ff0a01" stroke="none" /><path d="M 120.73433829027371 96.67025291283417 l 3.3963097806782327 -0.5454166147482529 a24.43982549120941,24.43982549120941 0 0,0 0.06312935706047992,0.4159435868352791 l -3.4051950311780126 0.48687391552089165" fill="#ff2f04" stroke="none" /><path d="M 120.78858239683441 97.02765380044208 l 1.4995189406288254 -0.21440083499978818 a22.514768883808088,22.514768883808088 0 0,0 0.05155238896293469,0.38412517732007945 l -1.5029873286495963 0.18855731561504438" fill="#ff1402" stroke="none" /><path d="M 120.83666639777658 97.38593545837742 l 0.3372265586411503 -0.042306766956316175 a21.33986999629748,21.33986999629748 0 0,0 0.04258792469019675,0.3648673307382958 l -0.337904836334936 0.03649569789316763" fill="#ff0300" stroke="none" /><path d="M 120.87857604477298 97.74499172005257 l 2.7981326319443243 -0.3022146836017212 a23.814405788250188,23.814405788250188 0 0,0 0.04051042975838416,0.4079344992270253 l -2.802920187384937 0.2540046536702609" fill="#ff2703" stroke="none" /><path d="M 120.91429891909075 98.10471618934814 l 11.83338836910185 -1.072358652225376 a32.88187836046968,32.88187836046968 0 0,0 0.04623116340845014,0.5641372928259168 l -11.850094016329797 0.8685074421916904" fill="#ffa10e" stroke="none" /><path d="M 120.96714384426684 98.82574320788733 l 3.41671284145163 -0.19135168292700963 a24.422066934982347,24.422066934982347 0 0,0 0.019893973558932382,0.41993033921580014 l -3.419500423244059 0.1325102370882097" fill="#ff2f04" stroke="none" /><path d="M 120.98425023603335 99.18683210126433 l 10.031620622172222 -0.38873878125212313 a31.03914987173916,31.03914987173916 0 0,0 0.016093511792405778,0.5340653070099461 l -10.036825828420273 0.2160033268171779" fill="#ff890c" stroke="none" /><line stroke="#e1ed5e" stroke-width="0.3" x1="184.98032266829074" x2="189.97916517819016" y1="98.17113171792111" y2="98.06355123074" /><path d="M 185.9800911702706 98.14961562048488 a86.0,86.0 0 0,1 -9.607161424134198,41.387399972396054" fill="none" id="id124" stroke="none" /><text fill="#e1ed5e" style="font-size:6.75px; font-family:Arial;" text-anchor="middle"><textPath startOffset="21.466115282336823" xlink:href="#id124">April</textPath></text><path d="M 120.99980553446 99.90962569577887 l 3.8720143986410043 -0.016663516556720177 a24.87205025484785,24.87205025484785 0 0,0 -0.001842548380813527,0.42814335356043454 l -3.871727552970688 -0.04998931520739909" fill="#ff3505" stroke="none" /><path d="M 120.9904718944345 100.63252640178507 l 7.4067422581913664 0.22319460244080555 a28.41010436565076,28.41010436565076 0 0,0 -0.018937184123515784,0.48868457674189375 l -7.401802941216647 -0.3506564261967055" fill="#ff6609" stroke="none" /><path d="M 120.9764740272857 100.99374915477107 l 1.631281189502066 0.07728106740689336 a22.633110738009773,22.633110738009773 0 0,0 -0.021785607561039158,0.3889966577457223 l -1.6297092310534977 -0.10534944148803894" fill="#ff1602" stroke="none" /><path d="M 120.95626037817324 101.35467743843564 l 0.5097556916157998 0.03295218336117448 a21.510819646766812,21.510819646766812 0 0,0 -0.027066184810397877,0.36929658755392814 l -0.5091129481410642 -0.041721907411872886" fill="#ff0601" stroke="none" /><path d="M 120.92983693683757 101.71520430193887 l 2.45461940750039 0.20115654890541415 a23.462848024715512,23.462848024715512 0 0,0 -0.036451661395046145,0.4022410460263806 l -2.4507931498282685 -0.2433789834803653" fill="#ff2203" stroke="none" /><path d="M 120.81339534386255 102.79330883721812 l 1.3359685774174161 0.17929668715230576 a22.347946342355847,22.347946342355847 0 0,0 -0.05445018487793857,0.380824466216709 l -1.3326843415228764 -0.2022666253494241" fill="#ff1202" stroke="none" /><path d="M 120.76222939487914 103.15116336523771 l 12.75321984221565 1.935605198809935 a33.89927067045044,33.89927067045044 0 0,0 -0.09252603444104997,0.5761597047874151 l -12.718012053413311 -2.154844133290555" fill="#ffae10" stroke="none" /><path d="M 120.70491114924044 103.5080841355445 l 1.8756596339857956 0.3177976354613895 a22.902391757674685,22.902391757674685 0 0,0 -0.06920182076029047,0.388120561424691 l -1.8699113708863164 -0.3500369476192988" fill="#ff1a02" stroke="none" /><path d="M 120.64145759157962 103.86396538481128 l 1.6748810069549251 0.3135283545669623 a22.70397371358123,22.70397371358123 0 0,0 -0.07521509395107649,0.383520143614436 l -1.6692359800281846 -0.34231222524934324" fill="#ff1702" stroke="none" /><path d="M 120.5718875245553 104.21870165774334 l 9.838682621712323 2.017630450131755 a31.043431105159378,31.043431105159378 0 0,0 -0.11185385980301946,0.5225439949323849 l -9.80249472318486 -2.186688264480309" fill="#ff890c" stroke="none" /><path d="M 120.49622156327973 104.57218783832717 l 0.11139958281617117 0.024850425049040847 a21.11413768298303,21.11413768298303 0 0,0 -0.08218369833673436,0.35404522148743217 l -0.11095531854888398 -0.026764303885037928" fill="#ff0000" stroke="none" /><path d="M 120.41448212921028 104.9243191809786 l 1.7938969566677376 0.4327183582961555 a22.845348603583695,22.845348603583695 0 0,0 -0.09550300611332282,0.38148703593039895 l -1.786182636259354 -0.46353323362395044" fill="#ff1902" stroke="none" /><path d="M 120.32669344350535 105.2749913415812 l 0.4949389125268458 0.12844186810053532 a21.511333394777235,21.511333394777235 0 0,0 -0.09609616981987715,0.35760959655239744 l -0.49265466636519145 -0.136942397828481" fill="#ff0601" stroke="none" /><path d="M 120.23288151984713 105.62410040840565 l 6.112529574856701 1.6990896746279658 a27.344282743220482,27.344282743220482 0 0,0 -0.1299600360400844,0.4524079346105247 l -6.082376901930517 -1.8040550847430725" fill="#ff5808" stroke="none" /><path d="M 120.13307415673323 105.97154293290107 l 0.2528286681430218 0.0749899014294014 a21.26371541621863,21.26371541621863 0 0,0 -0.10710151467069269,0.35001394679598996 l -0.2515003809661964 -0.07933082077744846" fill="#ff0200" stroke="none" /><path d="M 120.02730092923936 106.31721596034902 l 0.40704371862794053 0.12839389016829952 a21.42681328459528,21.42681328459528 0 0,0 -0.11397814666272924,0.35078866558163085 l -0.40477332094896434 -0.1353814557277256" fill="#ff0500" stroke="none" /><path d="M 119.9155931802556 106.66101706037122 l 9.201534468138883 3.077567287055836 a30.702559300241568,30.702559300241568 0 0,0 -0.171947737486552,0.49976061208771605 l -9.1471958997091 -3.235500602232853" fill="#ff850c" stroke="none" /><path d="M 119.79798401119884 107.00284435728193 l 0.7516982589956416 0.26588696649157056 a21.797336912181525,21.797336912181525 0 0,0 -0.12816391825474585,0.3526520588244404 l -0.747010079735669 -0.2787868223221421" fill="#ff0a01" stroke="none" /><path d="M 119.54520255179757 107.68017299344265 l 0.33822475560232373 0.13290343892863896 a21.363399655175,21.363399655175 0 0,0 -0.1374352116185079,0.3411029242574666 l -0.33588692972642337 -0.13870573102891903" fill="#ff0400" stroke="none" /><path d="M 119.41010516605496 108.01547362559984 l 12.59744163408104 5.202159406358981 a34.62930659326613,34.62930659326613 0 0,0 -0.23226208836439247,0.5489989677816657 l -12.506028564524339 -5.41823289980681" fill="#ffb711" stroke="none" /><path d="M 119.26925614724726 108.34839909993367 l 4.465801251518265 1.9348069725039048 a25.866914714571422,25.866914714571422 0 0,0 -0.18052509342458398,0.40703642843961435 l -4.431835073362408 -2.011391737436207" fill="#ff4306" stroke="none" /><path d="M 119.12269723197855 108.67885076344098 l 1.8925477468407648 0.8589342422914075 a23.078341888778834,23.078341888778834 0 0,0 -0.1672909255581299,0.3603297707528071 l -1.8774822044428034 -0.8913840803230452" fill="#ff1c02" stroke="none" /><path d="M 118.97047184881838 109.00673069616215 l 56.911415546455125 27.02019208848646 a84.0,84.0 0 0,0 -0.6313869735411428,1.3008441761388982 l -56.43787531629926 -27.995825220590632" fill="#4dd2ff" stroke="none" /><path d="M 118.81262510543309 109.33194174019688 l 0.6867559712252901 0.34066307478565966 a21.766606218691194,21.766606218691194 0 0,0 -0.1693870353569992,0.33421669051156755 l -0.6807902660820219 -0.3524339769999215" fill="#ff0a01" stroke="none" /><path d="M 118.64920377521936 109.65438752849418 l 53.65069185136797 27.774084971562758 a81.41354593249787,81.41354593249787 0 0,0 -0.6549816372291892,1.2389784213629353 l -53.16465770591388 -28.693478408011828" fill="#4ae9ff" stroke="none" /><line stroke="#e1ed5e" stroke-width="0.3" x1="174.80103733775053" x2="179.2010983576182" y1="140.37084112569926" y2="142.7455964860345" /><path d="M 175.68104954172406 140.8457921977663 a86.0,86.0 0 0,1 -30.038265399797805,32.042727171017184" fill="none" id="id125" stroke="none" /><text fill="#e1ed5e" style="font-size:6.75px; font-family:Arial;" text-anchor="middle"><textPath startOffset="22.206326154141568" xlink:href="#id125">May</textPath></text><path d="M 118.48025628344425 109.97397251340804 l 1.090687081797462 0.588654335076659 a22.239399950219624,22.239399950219624 0 0,0 -0.18471790433148697,0.3353166513039009 l -1.0803927680144656 -0.607341504778365" fill="#ff1001" stroke="none" /><path d="M 118.30583269289576 110.29060199501025 l 4.788404228132311 2.69179572050044 a26.493139289413648,26.493139289413648 0 0,0 -0.22689229604085764,0.39560584295578377 l -4.741359935939074 -2.773821409314539" fill="#ff4c07" stroke="none" /><path d="M 118.12598468904814 110.60418214915192 l 0.6657771390724719 0.38949729764096447 a21.77134126285396,21.77134126285396 0 0,0 -0.19202232207527917,0.3218404569014974 l -0.6589739412989656 -0.40089984842856596" fill="#ff0a01" stroke="none" /><path d="M 117.94076556474637 110.91462005526583 l 13.241949824810296 8.05600243797297 a36.49994872389647,36.49994872389647 0 0,0 -0.33116813724802346,0.5339484834743048 l -13.10131704789431 -8.282747252812548" fill="#ffcf13" stroke="none" /><path d="M 117.75023020441432 111.22182372390056 l 1.0758058537549307 0.6801322300020559 a22.272767883496808,22.272767883496808 0 0,0 -0.20766188717716683,0.32229586046465986 l -1.0639391032007135 -0.6985496903881687" fill="#ff1101" stroke="none" /><line stroke="#e1ed5e" stroke-width="0.3" x1="143.8653032363475" x2="146.44561519142675" y1="172.8068346515853" y2="177.08958963109032" /><path d="M 144.38136562736335 173.6633856474863 a86.0,86.0 0 0,1 -40.68145358897372,12.25698825130547" fill="none" id="id126" stroke="none" /><text fill="#e1ed5e" style="font-size:6.75px; font-family:Arial;" text-anchor="middle"><textPath startOffset="21.466115282336833" xlink:href="#id126">June</textPath></text><line stroke="#e1ed5e" stroke-width="0.3" x1="102.19456741930631" x2="102.32365962044197" y1="184.97166512339345" y2="189.96999836594603" /><path d="M 102.22038585953345 185.97133177190398 a86.0,86.0 0 0,1 -42.740103519485714,-10.115201625700543" fill="none" id="id127" stroke="none" /><text fill="#e1ed5e" style="font-size:6.75px; font-family:Arial;" text-anchor="middle"><textPath startOffset="22.20632615414155" xlink:href="#id127">July</textPath></text><line stroke="#e1ed5e" stroke-width="0.3" x1="58.666819895761336" x2="56.23545636021788" y1="174.27360380694188" y2="178.64263932499728" /><path d="M 58.180547188652646 175.14741091055294 a86.0,86.0 0 0,1 -31.652253787137756,-30.449443065178592" fill="none" id="id128" stroke="none" /><text fill="#e1ed5e" style="font-size:6.75px; font-family:Arial;" text-anchor="middle"><textPath startOffset="22.20632615414155" xlink:href="#id128">August</textPath></text><line stroke="#e1ed5e" stroke-width="0.3" x1="26.63291911575756" x2="22.317208475507996" y1="142.92168965132927" y2="145.44649492493687" /><path d="M 25.769776987707644 143.4266507060508 a86.0,86.0 0 0,1 -11.730757126820373,-40.83630448921669" fill="none" id="id129" stroke="none" /><text fill="#e1ed5e" style="font-size:6.75px; font-family:Arial;" text-anchor="middle"><textPath startOffset="21.46611528233685" xlink:href="#id129">September</textPath></text><line stroke="#e1ed5e" stroke-width="0.3" x1="15.007084014347285" x2="10.007500721073583" y1="101.09737516637583" y2="101.16192664675087" /><path d="M 14.007167355692545 101.11028546245083 a86.0,86.0 0 0,1 10.666146001902534,-42.60595125391555" fill="none" id="id130" stroke="none" /><text fill="#e1ed5e" style="font-size:6.75px; font-family:Arial;" text-anchor="middle"><textPath startOffset="22.20632615414155" xlink:href="#id130">October</textPath></text><line stroke="#e1ed5e" stroke-width="0.3" x1="26.266209847984243" x2="21.928928074336255" y1="57.711370442889674" y2="55.22380399835377" /><path d="M 25.398753493254645 57.213857153982495 a86.0,86.0 0 0,1 29.58750427330803,-30.492523968695096" fill="none" id="id131" stroke="none" /><text fill="#e1ed5e" style="font-size:6.75px; font-family:Arial;" text-anchor="middle"><textPath startOffset="21.46611528233685" xlink:href="#id131">November</textPath></text><line stroke="#e1ed5e" stroke-width="0.3" x1="56.762969772571076" x2="54.21961505331055" y1="26.818313649435495" y2="22.513508569990535" /><path d="M 56.25429882871897 25.957352633546506 a86.0,86.0 0 0,1 42.265352541879196,-11.944610805530505" fill="none" id="id132" stroke="none" /><text fill="#e1ed5e" style="font-size:6.75px; font-family:Arial;" text-anchor="middle"><textPath startOffset="22.20632615414155" xlink:href="#id132">December</textPath></text></svg>